<svg width="1223" height="334" viewBox="0 0 1223 334" fill="none" xmlns="http://www.w3.org/2000/svg">
<ellipse cx="239.721" cy="155.022" rx="146" ry="145.5" transform="rotate(-3.66506 239.721 155.022)" fill="url(#paint0_linear_8_4)"/>
<path d="M362.501 303.758L312.797 280.404L323.797 273.904L333.797 265.904L340.797 259.904L345.798 254.404L362.501 303.758Z" fill="url(#paint1_linear_8_4)"/>
<path d="M414.713 157.369C414.713 155.042 415.517 153.074 417.125 151.466C418.733 149.815 420.68 148.99 422.965 148.99C425.25 148.99 427.197 149.815 428.805 151.466C430.413 153.074 431.217 155.042 431.217 157.369C431.217 159.527 430.413 161.516 428.805 163.336C428.466 163.717 428.085 164.076 427.662 164.415L428.424 165.05C432.232 167.927 436.655 169.366 441.69 169.366C441.733 169.366 441.796 169.366 441.881 169.366C445.901 169.366 449.223 168.308 451.847 166.192C454.132 164.33 455.359 161.093 455.528 156.48V155.274C455.317 150.746 453.18 147.805 449.117 146.451L431.852 141.373C425.377 139.469 421.314 134.877 419.664 127.599C419.495 126.329 419.41 125.081 419.41 123.854C419.41 119.664 421.082 115.517 424.425 111.412C428.445 106.503 434.052 104.049 441.246 104.049C447.975 104.049 453.709 106.292 458.448 110.777C460.014 112.258 461.22 113.782 462.066 115.348C462.701 116.533 463.019 117.887 463.019 119.41C463.019 121.695 462.215 123.663 460.606 125.313C458.998 126.964 457.052 127.789 454.767 127.789C452.481 127.789 450.535 126.964 448.927 125.313C447.319 123.663 446.515 121.674 446.515 119.347C446.515 117.019 447.319 115.051 448.927 113.443L450.133 112.618C447.551 111.179 444.61 110.46 441.31 110.46H441.119C438.284 110.672 435.724 111.729 433.438 113.634C431.576 115.58 430.646 118.352 430.646 121.949C430.646 122.245 430.646 122.542 430.646 122.838C430.646 126.393 432.444 128.932 436.041 130.455L451.085 134.391C455.486 135.999 458.766 137.734 460.924 139.596C464.986 143.108 467.06 148.377 467.145 155.401C466.721 160.606 464.394 165.41 460.162 169.811C456.396 173.661 450.196 175.587 441.563 175.587C433.989 175.587 427.345 173.132 421.632 168.224C418.67 165.642 416.723 163.442 415.792 161.622C415.538 161.114 415.348 160.691 415.221 160.353C414.882 159.464 414.713 158.469 414.713 157.369ZM475.396 174C480.644 172.984 484.622 170.022 487.33 165.113L487.457 164.605V90.5918C487.457 89.5339 487.182 88.7933 486.632 88.3701C485.743 87.693 484.452 87.1641 482.76 86.7832C479.036 85.9368 476.581 85.4714 475.396 85.3867C476.835 84.752 483.31 82.3398 494.82 78.1504C496.598 77.5156 498.333 76.9655 500.025 76.5V108.937L500.216 108.81C504.448 105.636 509.166 104.049 514.371 104.049C519.492 104.049 524.21 105.636 528.526 108.81C532.8 111.941 536.207 116.3 538.746 121.886C541.285 127.472 542.555 133.46 542.555 139.85V140.23V161.495C542.555 162.553 542.83 163.294 543.38 163.717C544.226 164.394 545.517 164.923 547.252 165.304C551.103 166.15 553.557 166.616 554.615 166.7C552.245 167.758 545.771 170.17 535.191 173.937C533.414 174.571 531.679 175.121 529.986 175.587V140.104V139.85C529.986 130.201 528.146 123.049 524.464 118.395C520.994 113.993 516.826 111.793 511.959 111.793C511.874 111.793 511.79 111.793 511.705 111.793C506.331 111.793 502.438 113.74 500.025 117.633V164.605L500.152 165.177C502.438 169.874 506.415 172.815 512.086 174H475.396ZM575.372 139.596C575.372 149.117 576.43 156.142 578.546 160.67C581.297 166.552 585.063 169.493 589.845 169.493C590.479 169.493 591.114 169.493 591.749 169.493C595.261 169.493 598.647 167.864 601.905 164.605L602.54 163.653C603.175 162.976 603.492 161.559 603.492 159.4V120.235C603.492 118.077 603.196 116.66 602.604 115.982L601.969 115.03C598.71 111.772 595.325 110.143 591.812 110.143C591.178 110.143 590.543 110.143 589.908 110.143C585.126 110.143 581.36 113.084 578.609 118.966C576.451 123.578 575.372 130.455 575.372 139.596ZM561.598 139.024C561.598 132.761 562.846 126.943 565.343 121.568C567.84 116.152 571.267 111.899 575.626 108.81C580.112 105.636 585.147 104.049 590.733 104.049C595.6 104.049 601.588 105.297 608.697 107.794C618.896 111.391 625.37 113.803 628.121 115.03C627.19 115.073 624.736 115.538 620.758 116.427C619.065 116.808 617.774 117.337 616.886 118.014C616.336 118.437 616.061 119.177 616.061 120.235V159.4C616.061 160.501 616.314 161.241 616.822 161.622C617.711 162.299 619.002 162.828 620.694 163.209C624.672 164.098 627.127 164.563 628.058 164.605C625.307 165.833 618.832 168.245 608.634 171.842C601.524 174.339 595.536 175.587 590.67 175.587C585.084 175.587 580.048 174 575.562 170.826C571.204 167.737 567.776 163.484 565.279 158.067C562.825 152.778 561.598 146.43 561.598 139.024ZM633.199 174C638.447 172.984 642.424 170.022 645.133 165.113L645.26 164.605V120.235C645.26 119.22 644.985 118.479 644.435 118.014C643.673 117.337 642.382 116.808 640.562 116.427C636.754 115.58 634.299 115.115 633.199 115.03C636.119 113.718 642.594 111.306 652.623 107.794C659.732 105.297 665.868 104.049 671.031 104.049C671.201 104.049 671.37 104.049 671.539 104.049C678.395 104.049 684.361 106.419 689.439 111.158C693.671 116.067 695.787 120.997 695.787 125.948C695.787 126.075 695.787 126.181 695.787 126.266C695.787 128.593 694.983 130.624 693.375 132.359C691.809 134.052 689.863 134.898 687.535 134.898C685.208 134.898 683.261 134.094 681.695 132.486C680.087 130.836 679.283 128.91 679.283 126.71C679.283 126.625 679.283 126.562 679.283 126.52C679.283 124.107 680.087 122.118 681.695 120.553C683.261 119.029 685.081 118.225 687.154 118.141C686.858 116.406 684.785 114.417 680.934 112.174C679.029 111.074 676.554 110.523 673.507 110.523C672.999 110.523 672.491 110.545 671.983 110.587C667.371 110.968 663.562 112.216 660.558 114.332C660.346 114.459 659.732 115.009 658.717 115.982C658.124 116.533 657.828 117.95 657.828 120.235V164.605L657.955 165.177C660.24 169.874 664.218 172.815 669.889 174H633.199ZM702.77 139.786C702.77 133.438 704.039 127.472 706.578 121.886C709.075 116.384 712.481 112.026 716.798 108.81C721.072 105.636 725.79 104.049 730.953 104.049C735.862 104.049 740.496 105.488 744.854 108.365C748.028 110.1 750.864 113.041 753.36 117.188C755.138 120.151 756.132 123.367 756.344 126.837C756.301 134.327 752.937 140.463 746.251 145.245C740.58 149.308 733.873 151.339 726.129 151.339C726.044 151.339 723.019 151.17 717.052 150.831C718.11 155.19 719.527 158.723 721.305 161.432C724.309 166.002 728.245 168.287 733.111 168.287H733.238C738.443 168.287 742.866 166.044 746.505 161.559C747.986 159.739 749.319 157.242 750.504 154.068L757.867 156.227C757.698 156.904 757.55 157.369 757.423 157.623C753.868 164.14 750.462 168.499 747.203 170.699C741.913 173.915 736.878 175.523 732.096 175.523H731.905C726.108 175.523 721.072 173.958 716.798 170.826C712.524 167.695 709.117 163.336 706.578 157.75C704.039 152.164 702.77 146.176 702.77 139.786ZM744.41 126.773C744.41 121.992 743.141 118.225 740.602 115.475C738.401 113.062 735.354 111.687 731.461 111.349H731.334C726.679 111.349 722.955 113.613 720.162 118.141C718.046 121.611 716.734 125.927 716.227 131.09C715.93 134.094 715.782 137.353 715.782 140.865C715.782 142.05 715.867 143.425 716.036 144.991C719.887 145.076 723.738 145.118 727.589 145.118C729.578 145.118 730.995 145.012 731.842 144.801C736.116 143.743 739.078 141.965 740.729 139.469C743.183 135.364 744.41 131.132 744.41 126.773ZM760.406 78.0869H797.096C789.013 81.6839 784.972 84.4557 784.972 86.4023C784.972 86.5716 785.014 86.7409 785.099 86.9102L785.289 87.4814L809.791 150.514L833.404 87.4814L833.595 86.8467C833.679 86.6351 833.722 86.4023 833.722 86.1484C833.51 83.6094 829.469 80.9222 821.598 78.0869H853.082C847.877 79.1025 843.92 82.0648 841.212 86.9736L841.021 87.4814L807.062 176.539L772.467 87.4814L772.403 87.291L772.213 86.7197C769.505 81.9801 765.569 79.1025 760.406 78.0869ZM851.178 112.936C854.225 111.581 860.699 109.169 870.602 105.699C872.167 105.149 873.902 104.599 875.807 104.049V164.605L875.934 165.177C878.219 169.874 882.197 172.815 887.867 174H851.178C856.425 172.984 860.403 170.022 863.111 165.113L863.238 164.605V118.141C863.238 117.083 862.963 116.342 862.413 115.919C861.524 115.2 860.107 114.649 858.16 114.269C854.013 113.38 851.686 112.936 851.178 112.936ZM863.683 90.8457C862.075 89.1953 861.271 87.2064 861.271 84.8789C861.271 82.5514 862.075 80.5837 863.683 78.9756C865.291 77.3252 867.237 76.5 869.522 76.5C871.808 76.5 873.754 77.3252 875.362 78.9756C876.97 80.5837 877.774 82.5514 877.774 84.8789C877.774 87.2064 876.97 89.1953 875.362 90.8457C873.754 92.4538 871.808 93.2578 869.522 93.2578C867.237 93.2578 865.291 92.4538 863.683 90.8457ZM897.389 139.786C897.389 133.438 898.658 127.472 901.197 121.886C903.694 116.384 907.101 112.026 911.417 108.81C915.691 105.636 920.41 104.049 925.572 104.049C930.481 104.049 935.115 105.488 939.474 108.365C942.647 110.1 945.483 113.041 947.979 117.188C949.757 120.151 950.751 123.367 950.963 126.837C950.921 134.327 947.556 140.463 940.87 145.245C935.2 149.308 928.492 151.339 920.748 151.339C920.663 151.339 917.638 151.17 911.671 150.831C912.729 155.19 914.146 158.723 915.924 161.432C918.928 166.002 922.864 168.287 927.73 168.287H927.857C933.062 168.287 937.485 166.044 941.124 161.559C942.605 159.739 943.938 157.242 945.123 154.068L952.486 156.227C952.317 156.904 952.169 157.369 952.042 157.623C948.487 164.14 945.081 168.499 941.822 170.699C936.533 173.915 931.497 175.523 926.715 175.523H926.524C920.727 175.523 915.691 173.958 911.417 170.826C907.143 167.695 903.736 163.336 901.197 157.75C898.658 152.164 897.389 146.176 897.389 139.786ZM939.029 126.773C939.029 121.992 937.76 118.225 935.221 115.475C933.02 113.062 929.973 111.687 926.08 111.349H925.953C921.298 111.349 917.574 113.613 914.781 118.141C912.665 121.611 911.354 125.927 910.846 131.09C910.549 134.094 910.401 137.353 910.401 140.865C910.401 142.05 910.486 143.425 910.655 144.991C914.506 145.076 918.357 145.118 922.208 145.118C924.197 145.118 925.615 145.012 926.461 144.801C930.735 143.743 933.697 141.965 935.348 139.469C937.802 135.364 939.029 131.132 939.029 126.773ZM1017.68 126.202L995.968 176.539L968.99 115.03L968.927 114.84L968.736 114.269C966.028 109.529 962.092 106.651 956.93 105.636H993.619C985.536 109.233 981.495 112.005 981.495 113.951C981.495 114.12 981.537 114.29 981.622 114.459L981.812 115.03L998.951 152.418L1020.66 103.097L1041.99 152.672L1058.24 115.094L1058.43 114.459C1058.51 114.247 1058.56 114.015 1058.56 113.761C1058.56 111.306 1054.51 108.619 1046.43 105.699L1077.03 105.636C1071.82 106.651 1067.87 109.614 1065.16 114.522L1064.97 115.03L1038.62 176.539L1017.68 126.202Z" fill="black"/>
<path d="M957 239H1034" stroke="#64B937" stroke-width="8"/>
<path d="M409 239H486" stroke="#64B937" stroke-width="8"/>
<path d="M531.679 227.906C531.546 226.666 530.988 225.7 530.003 225.009C529.027 224.317 527.759 223.972 526.196 223.972C525.098 223.972 524.155 224.137 523.369 224.469C522.583 224.8 521.982 225.25 521.565 225.818C521.149 226.386 520.936 227.035 520.926 227.764C520.926 228.37 521.063 228.896 521.338 229.341C521.622 229.786 522.006 230.165 522.489 230.477C522.972 230.78 523.507 231.036 524.094 231.244C524.681 231.453 525.273 231.628 525.869 231.77L528.597 232.452C529.695 232.707 530.751 233.053 531.764 233.489C532.787 233.924 533.701 234.473 534.506 235.136C535.32 235.799 535.964 236.599 536.438 237.537C536.911 238.474 537.148 239.573 537.148 240.832C537.148 242.537 536.712 244.038 535.841 245.335C534.97 246.623 533.71 247.632 532.062 248.361C530.424 249.08 528.44 249.44 526.111 249.44C523.848 249.44 521.883 249.09 520.216 248.389C518.559 247.688 517.261 246.666 516.324 245.321C515.396 243.976 514.894 242.338 514.818 240.406H520.003C520.079 241.42 520.391 242.262 520.94 242.935C521.49 243.607 522.205 244.109 523.085 244.44C523.975 244.772 524.97 244.938 526.068 244.938C527.214 244.938 528.218 244.767 529.08 244.426C529.951 244.076 530.633 243.593 531.125 242.977C531.617 242.352 531.868 241.623 531.878 240.79C531.868 240.032 531.646 239.407 531.21 238.915C530.775 238.413 530.164 237.996 529.378 237.665C528.601 237.324 527.692 237.021 526.651 236.756L523.341 235.903C520.945 235.288 519.051 234.355 517.659 233.105C516.277 231.846 515.585 230.174 515.585 228.091C515.585 226.377 516.049 224.876 516.977 223.588C517.915 222.3 519.188 221.301 520.798 220.591C522.408 219.871 524.231 219.511 526.267 219.511C528.331 219.511 530.14 219.871 531.693 220.591C533.256 221.301 534.482 222.291 535.372 223.56C536.262 224.819 536.722 226.268 536.75 227.906H531.679ZM541.846 249V219.909H560.766V224.327H547.116V232.224H559.786V236.642H547.116V244.582H560.88V249H541.846ZM566.143 249V219.909H585.063V224.327H571.413V232.224H584.083V236.642H571.413V244.582H585.177V249H566.143ZM596.249 245.023L596.065 246.585C595.932 247.778 595.695 248.991 595.354 250.222C595.023 251.462 594.673 252.603 594.303 253.645C593.934 254.687 593.636 255.506 593.408 256.102H589.942C590.075 255.525 590.255 254.739 590.482 253.744C590.719 252.75 590.946 251.633 591.164 250.392C591.382 249.152 591.529 247.892 591.604 246.614L591.704 245.023H596.249ZM618.046 227.906C617.914 226.666 617.355 225.7 616.37 225.009C615.395 224.317 614.126 223.972 612.563 223.972C611.465 223.972 610.522 224.137 609.737 224.469C608.951 224.8 608.349 225.25 607.933 225.818C607.516 226.386 607.303 227.035 607.293 227.764C607.293 228.37 607.431 228.896 607.705 229.341C607.989 229.786 608.373 230.165 608.856 230.477C609.339 230.78 609.874 231.036 610.461 231.244C611.048 231.453 611.64 231.628 612.237 231.77L614.964 232.452C616.062 232.707 617.118 233.053 618.131 233.489C619.154 233.924 620.068 234.473 620.873 235.136C621.687 235.799 622.331 236.599 622.805 237.537C623.278 238.474 623.515 239.573 623.515 240.832C623.515 242.537 623.079 244.038 622.208 245.335C621.337 246.623 620.077 247.632 618.43 248.361C616.791 249.08 614.808 249.44 612.478 249.44C610.215 249.44 608.25 249.09 606.583 248.389C604.926 247.688 603.629 246.666 602.691 245.321C601.763 243.976 601.261 242.338 601.185 240.406H606.37C606.446 241.42 606.758 242.262 607.308 242.935C607.857 243.607 608.572 244.109 609.452 244.44C610.343 244.772 611.337 244.938 612.435 244.938C613.581 244.938 614.585 244.767 615.447 244.426C616.318 244.076 617 243.593 617.492 242.977C617.985 242.352 618.236 241.623 618.245 240.79C618.236 240.032 618.013 239.407 617.577 238.915C617.142 238.413 616.531 237.996 615.745 237.665C614.969 237.324 614.059 237.021 613.018 236.756L609.708 235.903C607.312 235.288 605.418 234.355 604.026 233.105C602.644 231.846 601.952 230.174 601.952 228.091C601.952 226.377 602.416 224.876 603.344 223.588C604.282 222.3 605.556 221.301 607.165 220.591C608.775 219.871 610.598 219.511 612.634 219.511C614.699 219.511 616.507 219.871 618.06 220.591C619.623 221.301 620.849 222.291 621.739 223.56C622.629 224.819 623.089 226.268 623.117 227.906H618.046ZM628.213 249V219.909H633.483V232.224H646.963V219.909H652.247V249H646.963V236.642H633.483V249H628.213ZM661.714 249H656.089L666.331 219.909H672.837L683.092 249H677.467L669.697 225.875H669.47L661.714 249ZM661.899 237.594H677.24V241.827H661.899V237.594ZM686.924 249V219.909H697.833C700.068 219.909 701.943 220.297 703.458 221.074C704.983 221.85 706.133 222.939 706.91 224.341C707.696 225.733 708.089 227.357 708.089 229.213C708.089 231.079 707.691 232.698 706.896 234.071C706.11 235.435 704.95 236.491 703.415 237.239C701.881 237.977 699.997 238.347 697.762 238.347H689.992V233.972H697.052C698.359 233.972 699.429 233.792 700.262 233.432C701.095 233.062 701.711 232.527 702.109 231.827C702.516 231.116 702.719 230.245 702.719 229.213C702.719 228.181 702.516 227.3 702.109 226.571C701.701 225.832 701.081 225.274 700.248 224.895C699.415 224.507 698.34 224.312 697.023 224.312H692.194V249H686.924ZM701.952 235.818L709.154 249H703.273L696.2 235.818H701.952ZM712.94 249V219.909H731.86V224.327H718.21V232.224H730.88V236.642H718.21V244.582H731.974V249H712.94ZM743.046 245.023L742.862 246.585C742.729 247.778 742.492 248.991 742.151 250.222C741.82 251.462 741.469 252.603 741.1 253.645C740.731 254.687 740.433 255.506 740.205 256.102H736.739C736.872 255.525 737.052 254.739 737.279 253.744C737.516 252.75 737.743 251.633 737.961 250.392C738.179 249.152 738.326 247.892 738.401 246.614L738.501 245.023H743.046ZM754.303 219.909V249H749.033V219.909H754.303ZM760.01 219.909H766.459L775.095 240.989H775.436L784.072 219.909H790.521V249H785.464V229.014H785.195L777.155 248.915H773.376L765.337 228.972H765.067V249H760.01V219.909ZM796.26 249V219.909H807.169C809.404 219.909 811.279 220.326 812.794 221.159C814.319 221.992 815.469 223.138 816.246 224.597C817.032 226.045 817.425 227.693 817.425 229.54C817.425 231.405 817.032 233.062 816.246 234.511C815.46 235.96 814.3 237.101 812.766 237.935C811.232 238.759 809.342 239.17 807.098 239.17H799.868V234.838H806.388C807.695 234.838 808.765 234.611 809.598 234.156C810.431 233.702 811.047 233.077 811.445 232.281C811.852 231.486 812.055 230.572 812.055 229.54C812.055 228.508 811.852 227.598 811.445 226.812C811.047 226.027 810.427 225.416 809.584 224.98C808.75 224.535 807.676 224.312 806.359 224.312H801.53V249H796.26ZM822.002 249V219.909H832.911C835.146 219.909 837.021 220.297 838.536 221.074C840.061 221.85 841.211 222.939 841.988 224.341C842.774 225.733 843.167 227.357 843.167 229.213C843.167 231.079 842.769 232.698 841.974 234.071C841.188 235.435 840.028 236.491 838.494 237.239C836.96 237.977 835.075 238.347 832.84 238.347H825.07V233.972H832.13C833.437 233.972 834.507 233.792 835.34 233.432C836.174 233.062 836.789 232.527 837.187 231.827C837.594 231.116 837.798 230.245 837.798 229.213C837.798 228.181 837.594 227.3 837.187 226.571C836.78 225.832 836.159 225.274 835.326 224.895C834.493 224.507 833.418 224.312 832.102 224.312H827.272V249H822.002ZM837.031 235.818L844.232 249H838.352L831.278 235.818H837.031ZM874.012 234.455C874.012 237.589 873.425 240.274 872.251 242.509C871.086 244.734 869.495 246.438 867.478 247.622C865.47 248.806 863.193 249.398 860.646 249.398C858.098 249.398 855.816 248.806 853.799 247.622C851.791 246.429 850.201 244.72 849.026 242.494C847.862 240.259 847.279 237.58 847.279 234.455C847.279 231.32 847.862 228.64 849.026 226.415C850.201 224.18 851.791 222.471 853.799 221.287C855.816 220.103 858.098 219.511 860.646 219.511C863.193 219.511 865.47 220.103 867.478 221.287C869.495 222.471 871.086 224.18 872.251 226.415C873.425 228.64 874.012 231.32 874.012 234.455ZM868.714 234.455C868.714 232.248 868.368 230.387 867.677 228.872C866.995 227.348 866.048 226.197 864.836 225.42C863.624 224.634 862.227 224.241 860.646 224.241C859.064 224.241 857.667 224.634 856.455 225.42C855.243 226.197 854.291 227.348 853.6 228.872C852.918 230.387 852.577 232.248 852.577 234.455C852.577 236.661 852.918 238.527 853.6 240.051C854.291 241.566 855.243 242.717 856.455 243.503C857.667 244.279 859.064 244.668 860.646 244.668C862.227 244.668 863.624 244.279 864.836 243.503C866.048 242.717 866.995 241.566 867.677 240.051C868.368 238.527 868.714 236.661 868.714 234.455ZM881.324 219.909L888.895 242.807H889.193L896.75 219.909H902.545L892.29 249H885.784L875.543 219.909H881.324ZM906.377 249V219.909H925.298V224.327H911.647V232.224H924.317V236.642H911.647V244.582H925.411V249H906.377Z" fill="#64B937"/>
<path d="M153.594 187.981C154.49 196.391 158.356 202.926 165.192 207.584C172.029 212.302 180.655 214.693 191.072 214.758C198.529 214.804 204.988 213.66 210.447 211.326C215.906 209.052 220.158 205.882 223.201 201.817C226.185 197.81 227.693 193.233 227.725 188.084C227.752 183.763 226.769 180.028 224.776 176.879C222.724 173.73 220.047 171.079 216.746 168.928C213.385 166.836 209.786 165.068 205.948 163.623C202.109 162.238 198.417 161.091 194.871 160.181L177.144 155.455C171.353 153.999 165.417 152.039 159.336 149.575C153.255 147.111 147.623 143.88 142.439 139.882C137.255 135.885 133.083 130.946 129.923 125.067C126.704 119.188 125.12 112.165 125.171 103.997C125.234 93.6991 127.954 84.5716 133.33 76.6146C138.647 68.6572 146.35 62.4013 156.44 57.8471C166.47 53.2924 178.588 51.059 192.792 51.1466C206.405 51.2307 218.169 53.4636 228.085 57.8455C238.002 62.2273 245.747 68.401 251.32 76.3664C256.893 84.391 259.942 93.8797 260.466 104.833L232.946 104.663C232.453 98.0898 230.357 92.6021 226.655 88.1994C222.894 83.8556 218.09 80.6003 212.244 78.4334C206.339 76.3255 199.864 75.2497 192.821 75.2062C185.068 75.1584 178.166 76.3291 172.114 78.7184C166.002 81.1665 161.187 84.5696 157.668 88.9277C154.149 93.345 152.371 98.5128 152.335 104.431C152.301 109.817 153.813 114.236 156.869 117.688C159.867 121.139 163.962 124.005 169.157 126.286C174.292 128.567 180.109 130.586 186.609 132.342L208.057 138.334C222.592 142.389 234.097 148.29 242.572 156.037C250.988 163.783 255.156 173.989 255.078 186.654C255.014 197.13 252.116 206.257 246.386 214.034C240.656 221.811 232.925 227.83 223.192 232.091C213.459 236.41 202.496 238.533 190.304 238.457C177.994 238.381 167.147 236.154 157.763 231.775C148.32 227.397 140.9 221.402 135.502 213.793C130.103 206.243 127.315 197.585 127.139 187.818L153.594 187.981Z" fill="white"/>
<path d="M232.902 104.5L260.499 104.5L302.514 204.947L278.716 215.105L232.902 104.5Z" fill="white"/>
<path d="M357 68.9998L371.5 86.5L302.999 214L278.5 215L357 68.9998Z" fill="white"/>
<defs>
<linearGradient id="paint0_linear_8_4" x1="350.869" y1="290.264" x2="166.694" y2="-72.342" gradientUnits="userSpaceOnUse">
<stop stop-color="#27B004"/>
<stop offset="0.278371" stop-color="#36A01C" stop-opacity="0.838664"/>
<stop offset="0.849086" stop-color="#34C80F" stop-opacity="0.229133"/>
<stop offset="1" stop-color="#499137" stop-opacity="0"/>
</linearGradient>
<linearGradient id="paint1_linear_8_4" x1="308.189" y1="271.322" x2="387.881" y2="296.553" gradientUnits="userSpaceOnUse">
<stop stop-color="#32A316"/>
<stop offset="0.0001" stop-color="#36A01C" stop-opacity="0.838664"/>
<stop offset="0.385417" stop-color="#399E1F" stop-opacity="0.724338"/>
<stop offset="0.849086" stop-color="#44952F" stop-opacity="0.229133"/>
<stop offset="1" stop-color="#499137" stop-opacity="0"/>
</linearGradient>
</defs>
</svg>
